# xmcd
#
# Track frame offsets:
#	150
#	17460
#	31042
#	46882
#	59208
#	77405
#	93791
#	109787
#	125783
#	142238
#	157178
#	172589
#	189520
#	201331
#	217296
#	234701
#	248025
#	265154
#	281870
#	306956
#	318617
#	331961
#
# Disc length: 4585 seconds
#
# Revision: 0
# Processed by: cddbd v1.5.1PL0 Copyright (c) Steve Scherf et al.
# Submitted via: audiograbber 1.83.01
#
DISCID=4711e716
DTITLE=Mirek Hoffmann - Zlaty vyber CD2
DYEAR=2004
DGENRE=Country
TTITLE0=Divka s vlasem medovym
TTITLE1=Bida s nouzi
TTITLE2=Svetice ze Spoker Hill
TTITLE3=Jo, to byl den
TTITLE4=Prokletej vuz
TTITLE5=Nemam rad zlutou
TTITLE6=Bilej pes
TTITLE7=Bylo ji sedmnact
TTITLE8=Oranzovej drak
TTITLE9=Divnej smich
TTITLE10=Posledni sklenka
TTITLE11=Ma pychu kralu
TTITLE12=Zlate hodinky
TTITLE13=Odvolejte kneze
TTITLE14=Tata muj mi rikal
TTITLE15=Sle
TTITLE16=Druhy zakon
TTITLE17=Dam si pres rameno pingl
TTITLE18=Blues toulaveho sofera
TTITLE19=Cekani na vlak
TTITLE20=Kytku ruzi jsem ji dal
TTITLE21=Truck jmenem In the Mood
EXTD=
EXTT0=
EXTT1=
EXTT2=
EXTT3=
EXTT4=
EXTT5=
EXTT6=
EXTT7=
EXTT8=
EXTT9=
EXTT10=
EXTT11=
EXTT12=
EXTT13=
EXTT14=
EXTT15=
EXTT16=
EXTT17=
EXTT18=
EXTT19=
EXTT20=
EXTT21=
PLAYORDER=
